<?xml version="1.0" encoding="utf-8"?>
<svg version="1.1" id="Layer_1" xmlns="http://www.w3.org/2000/svg" xmlns:xlink="http://www.w3.org/1999/xlink" x="0px" y="0px"
	 viewBox="0 0 108.26 342.4" style="enable-background:new 0 0 108.26 342.4;" xml:space="preserve">
<style type="text/css">
	.st0{fill:none;stroke:#000000;stroke-width:0.5;stroke-miterlimit:10;}
</style>
<g>
	<g>
		<path d="M105.05,0.5c1.49,0,2.71,1.21,2.71,2.71v3.12c0,1.49-1.21,2.71-2.71,2.71h-5.79h-0.5v0.5v317.54
			c0,3.96-1.54,7.69-4.35,10.49c-2.8,2.8-6.53,4.35-10.49,4.35H24.63c-3.96,0-7.69-1.54-10.51-4.36c-2.8-2.8-4.34-6.53-4.35-10.49
			L9.69,9.53l0-0.5h-0.5H3.21c-1.49,0-2.71-1.21-2.71-2.71V3.21c0-1.49,1.21-2.71,2.71-2.71H105.05 M105.05,0H3.21
			C1.44,0,0,1.44,0,3.21v3.12C0,8.1,1.44,9.53,3.21,9.53h5.98l0.08,317.52c0,4.07,1.62,7.97,4.49,10.84l0.02,0.02
			c2.88,2.88,6.78,4.49,10.84,4.49h59.29c4.07,0,7.97-1.62,10.84-4.49c2.88-2.88,4.49-6.78,4.49-10.84V9.53h5.79
			c1.77,0,3.21-1.44,3.21-3.21V3.21C108.26,1.44,106.82,0,105.05,0L105.05,0z"/>
	</g>
	<line class="st0" x1="9.45" y1="9.28" x2="99.52" y2="9.28"/>
</g>
</svg>
