<?xml version="1.0" encoding="utf-8"?>
<svg version="1.1" id="Layer_1" xmlns="http://www.w3.org/2000/svg" xmlns:xlink="http://www.w3.org/1999/xlink" x="0px" y="0px"
	 viewBox="0 0 71.95 72.03" style="enable-background:new 0 0 71.95 72.03;" xml:space="preserve">
<style type="text/css">
	.st0{fill:#DB5B5B;}
</style>
<rect x="62.97" y="35.83" class="st0" width="8.98" height="9.06"/>
<rect x="62.97" y="26.85" class="st0" width="8.98" height="8.98"/>
<rect x="62.97" y="17.85" class="st0" width="8.98" height="9"/>
<rect x="53.98" y="62.86" class="st0" width="8.99" height="9.17"/>
<rect x="53.98" y="53.87" class="st0" width="8.99" height="8.99"/>
<rect x="53.98" y="44.89" class="st0" width="8.99" height="8.98"/>
<rect x="53.98" y="35.83" class="st0" width="8.99" height="9.06"/>
<rect x="53.98" y="26.85" class="st0" width="8.99" height="8.98"/>
<rect x="53.98" y="17.85" class="st0" width="8.99" height="9"/>
<rect x="53.98" y="8.88" class="st0" width="8.99" height="8.97"/>
<rect x="45" y="62.86" class="st0" width="8.98" height="9.17"/>
<rect x="45" y="44.89" class="st0" width="8.98" height="8.98"/>
<rect x="45" y="35.83" class="st0" width="8.98" height="9.06"/>
<rect x="45" y="26.85" class="st0" width="8.98" height="8.98"/>
<rect x="45" y="8.88" class="st0" width="8.98" height="8.97"/>
<rect x="45" class="st0" width="8.98" height="8.88"/>
<rect x="35.93" y="44.89" class="st0" width="9.07" height="8.98"/>
<rect x="35.93" y="26.85" class="st0" width="9.07" height="8.98"/>
<rect x="35.93" y="17.85" class="st0" width="9.07" height="9"/>
<rect x="35.93" y="8.88" class="st0" width="9.07" height="8.97"/>
<rect x="26.95" y="44.89" class="st0" width="8.98" height="8.98"/>
<rect x="26.95" y="26.85" class="st0" width="8.98" height="8.98"/>
<rect x="26.95" y="17.85" class="st0" width="8.98" height="9"/>
<rect x="26.95" y="8.88" class="st0" width="8.98" height="8.97"/>
<rect x="17.96" y="62.86" class="st0" width="8.99" height="9.17"/>
<rect x="17.96" y="44.89" class="st0" width="8.99" height="8.98"/>
<rect x="17.96" y="35.83" class="st0" width="8.99" height="9.06"/>
<rect x="17.96" y="26.85" class="st0" width="8.99" height="8.98"/>
<rect x="17.96" y="8.88" class="st0" width="8.99" height="8.97"/>
<rect x="17.96" class="st0" width="8.99" height="8.88"/>
<rect x="8.98" y="62.86" class="st0" width="8.98" height="9.17"/>
<rect x="8.98" y="53.87" class="st0" width="8.98" height="8.99"/>
<rect x="8.98" y="44.89" class="st0" width="8.98" height="8.98"/>
<rect x="8.98" y="35.83" class="st0" width="8.98" height="9.06"/>
<rect x="8.98" y="26.85" class="st0" width="8.98" height="8.98"/>
<rect x="8.98" y="17.85" class="st0" width="8.98" height="9"/>
<rect x="8.98" y="8.88" class="st0" width="8.98" height="8.97"/>
<rect y="35.83" class="st0" width="8.98" height="9.06"/>
<rect y="26.85" class="st0" width="8.98" height="8.98"/>
<rect y="17.85" class="st0" width="8.98" height="9"/>
</svg>
